<svg width="1106.75" height="950" overflow="hidden" version="1.1" font-family="Open Sans" xmlns="http://www.w3.org/2000/svg"><rect class="canvas" width="100%" height="100%" fill="#ffffff"/><defs><marker id="markerBoxplot" markerWidth="1" markerHeight="10" refX="1" refY="5"><line x1="0" x2="0" y1="0" y2="10" stroke="#000000" stroke-width="2px"/></marker></defs><g id="main" transform="translate(50, 150)"><path class="link" fill="none" stroke="#000000" d="M0,354 0,354 0,354"/><path class="link" fill="none" stroke="#000000" d="M0,354 0,249 53,249"/><path class="link" fill="none" stroke="#000000" d="M0,354 0,458 97,458"/><path class="link" fill="none" stroke="#000000" d="M53,249 53,175 148,175"/><path class="link" fill="none" stroke="#000000" d="M53,249 53,323 65,323"/><path class="link" fill="none" stroke="#000000" d="M148,175 148,121 187,121"/><path class="link" fill="none" stroke="#000000" d="M148,175 148,230 265,230"/><path class="link" fill="none" stroke="#000000" d="M187,121 187,80 433,80"/><path class="link" fill="none" stroke="#000000" d="M187,121 187,161 565,161"/><path class="link" fill="none" stroke="#000000" d="M433,80 433,46 478,46"/><path class="link" fill="none" stroke="#000000" d="M433,80 433,115 506,115"/><path class="link" fill="none" stroke="#000000" d="M478,46 478,23 528,23"/><path class="link" fill="none" stroke="#000000" d="M478,46 478,69 501,69"/><path class="link" fill="none" stroke="#000000" d="M265,230 265,207 497,207"/><path class="link" fill="none" stroke="#000000" d="M265,230 265,253 529,253"/><path class="link" fill="none" stroke="#000000" d="M65,323 65,300 593,300"/><path class="link" fill="none" stroke="#000000" d="M65,323 65,346 509,346"/><path class="link" fill="none" stroke="#000000" d="M97,458 97,392 594,392"/><path class="link" fill="none" stroke="#000000" d="M97,458 97,525 273,525"/><path class="link" fill="none" stroke="#000000" d="M273,525 273,473 340,473"/><path class="link" fill="none" stroke="#000000" d="M273,525 273,576 579,576"/><path class="link" fill="none" stroke="#000000" d="M340,473 340,438 581,438"/><path class="link" fill="none" stroke="#000000" d="M340,473 340,507 537,507"/><path class="link" fill="none" stroke="#000000" d="M537,507 537,484 583,484"/><path class="link" fill="none" stroke="#000000" d="M537,507 537,530 590,530"/><g class="root node cid_undefined" style="cursor: pointer; z-index: 100;" transform="translate(0,354)"><rect class="pointer" fill="red" width="14px" height="14px" style="opacity: 0;" x="-7px" y="-7px"/><text class="name" dx="7" dy="3" text-anchor="start" stroke="#000000" stroke-width="0.3px" fill="#000000" visibility="visible" font-size="9px" font-style="normal"/></g><g class="inner node cid__12" style="cursor: pointer; z-index: 100;" transform="translate(0,354)"><rect class="pointer" fill="red" width="14px" height="14px" style="opacity: 0;" x="-7px" y="-7px"/><text class="supportValue" dx="-2" text-anchor="end" fill="blue" dy="8" font-size="9px"/><text class="name" dx="7" dy="3" text-anchor="start" stroke="#000000" stroke-width="0.3px" fill="#000000" visibility="visible" font-size="9px" font-style="normal"> </text></g><g class="inner node cid__7" style="cursor: pointer; z-index: 100;" transform="translate(53,249)"><rect class="pointer" fill="red" width="14px" height="14px" style="opacity: 0;" x="-7px" y="-7px"/><text class="supportValue" dx="-2" text-anchor="end" fill="blue" dy="8" font-size="9px"/><text class="name" dx="7" dy="3" text-anchor="start" stroke="#000000" stroke-width="0.3px" fill="#000000" visibility="visible" font-size="9px" font-style="normal"> </text></g><g class="inner node cid__5" style="cursor: pointer; z-index: 100;" transform="translate(148,175)"><rect class="pointer" fill="red" width="14px" height="14px" style="opacity: 0;" x="-7px" y="-7px"/><text class="supportValue" dx="-2" text-anchor="end" fill="blue" dy="8" font-size="9px">100 </text><text class="name" dx="7" dy="3" text-anchor="start" stroke="#000000" stroke-width="0.3px" fill="#000000" visibility="visible" font-size="9px" font-style="normal"> </text></g><g class="inner node cid__3" style="cursor: pointer; z-index: 100;" transform="translate(187,121)"><rect class="pointer" fill="red" width="14px" height="14px" style="opacity: 0;" x="-7px" y="-7px"/><text class="supportValue" dx="-2" text-anchor="end" fill="blue" dy="8" font-size="9px">100 </text><text class="name" dx="7" dy="3" text-anchor="start" stroke="#000000" stroke-width="0.3px" fill="#000000" visibility="visible" font-size="9px" font-style="normal"> </text></g><g class="inner node cid__2" style="cursor: pointer; z-index: 100;" transform="translate(433,80)"><rect class="pointer" fill="red" width="14px" height="14px" style="opacity: 0;" x="-7px" y="-7px"/><text class="supportValue" dx="-2" text-anchor="end" fill="blue" dy="8" font-size="9px">100 </text><text class="name" dx="7" dy="3" text-anchor="start" stroke="#000000" stroke-width="0.3px" fill="#000000" visibility="visible" font-size="9px" font-style="normal"> </text></g><g class="inner node cid__1" style="cursor: pointer; z-index: 100;" transform="translate(478,46)"><rect class="pointer" fill="red" width="14px" height="14px" style="opacity: 0;" x="-7px" y="-7px"/><text class="supportValue" dx="-2" text-anchor="end" fill="blue" dy="8" font-size="9px">70 </text><text class="name" dx="7" dy="3" text-anchor="start" stroke="#000000" stroke-width="0.3px" fill="#000000" visibility="visible" font-size="9px" font-style="normal"> </text></g><g class="leaf node cid_U551098" style="cursor: pointer; z-index: 100;" transform="translate(528,23)"><rect class="pointer" fill="red" width="14px" height="14px" style="opacity: 0;" x="-7px" y="-7px"/><path class="domain" stroke="#000000" visibility="visible" d="M419,0L419,0"/><g class="graph heatmap gid1577363677570144" visibility="visible" transform="translate(281.25,0)"><rect class="heatmap hover-visible gid1577363677570144" fill="#9ecae1" stroke="#000000" stroke-width="0.3px" width="12" height="12" transform=" translate(0,-6)"><title>Percent G+C: 53.48</title></rect></g><g class="graph heatmap gid680733689688474" visibility="visible" transform="translate(281.25,0)"><rect class="heatmap hover-visible gid680733689688474" fill="#fc9272" stroke="#000000" stroke-width="0.3px" width="12" height="12" transform=" translate(17,-6)"><title>delta statistics: 0.14</title></rect></g><g class="graph multibar gid332364513966892" visibility="visible" transform="translate(281.25,0)"><rect class="multibar hover-visible gid332364513966892" fill="#000000" stroke="#000000" stroke-width="0.3" height="12" width="18" transform=" translate(34, -6)"><title>Genome size (in bp): 5116355</title></rect><rect class="multibar hover-visible gid332364513966892" fill="#bf812d" stroke="#000000" stroke-width="0.3" height="12" width="11" transform=" translate(59, -6)"><title>Protein count: 4770</title></rect></g><g class="graph binary gid1001439573228096" visibility="visible" transform="translate(281.25,0)"><path class="binary hover-visible gid1001439573228096" style="fill:#2c7fb8;stroke:#2c7fb8" d="M-5.366563145999495,-1.7888543819998317H-1.7888543819998317V-5.366563145999495H1.7888543819998317V-1.7888543819998317H5.366563145999495V1.7888543819998317H1.7888543819998317V5.366563145999495H-1.7888543819998317V1.7888543819998317H-5.366563145999495Z" transform=" translate(94 ,0)"><title>User strain?: 1</title></path></g><g class="graph binary gid1636700038034480" visibility="visible" transform="translate(281.25,0)"><path class="binary hover-visible gid1636700038034480" style="fill:none;stroke:none" d="M0,4.51351666838205A4.51351666838205,4.51351666838205 0 1,1 0,-4.51351666838205A4.51351666838205,4.51351666838205 0 1,1 0,4.51351666838205Z" transform=" translate(121 ,0)"><title>Type species?: -1</title></path></g><path class="support" stroke="#000000" stroke-dasharray="2,3" stroke-width="0.5px" visibility="visible" d="M0,0 L66,0"/><rect height="12px" width="12px" class="nodelabel color lid745261354558586" style="fill: #1f78b4; stroke: #1f78b4" visibility="visible" transform="translate(233,-6)"><title>Species cluster</title></rect><rect height="12px" width="12px" class="nodelabel color lid969954255573690" style="fill: #ffff99; stroke: #ffff99" visibility="visible" transform="translate(257,-6)"><title>Subspecies cluster</title></rect><text class="name" dx="71" dy="3" text-anchor="start" stroke="#000000" stroke-width="0.3px" fill="#000000" visibility="visible" font-size="9px" font-style="normal">'isolate_genome' </text></g><g class="leaf node cid_T141569" style="cursor: pointer; z-index: 100;" transform="translate(501,69)"><rect class="pointer" fill="red" width="14px" height="14px" style="opacity: 0;" x="-7px" y="-7px"/><path class="domain" stroke="#000000" visibility="visible" d="M446,0L446,0"/><g class="graph heatmap gid1577363677570144" visibility="visible" transform="translate(308.25,0)"><rect class="heatmap hover-visible gid1577363677570144" fill="#9ecae1" stroke="#000000" stroke-width="0.3px" width="12" height="12" transform=" translate(0,-6)"><title>Percent G+C: 53.49</title></rect></g><g class="graph heatmap gid680733689688474" visibility="visible" transform="translate(308.25,0)"><rect class="heatmap hover-visible gid680733689688474" fill="#fcbba1" stroke="#000000" stroke-width="0.3px" width="12" height="12" transform=" translate(17,-6)"><title>delta statistics: 0.131</title></rect></g><g class="graph multibar gid332364513966892" visibility="visible" transform="translate(308.25,0)"><rect class="multibar hover-visible gid332364513966892" fill="#000000" stroke="#000000" stroke-width="0.3" height="12" width="17" transform=" translate(34, -6)"><title>Genome size (in bp): 4977758</title></rect><rect class="multibar hover-visible gid332364513966892" fill="#bf812d" stroke="#000000" stroke-width="0.3" height="12" width="10" transform=" translate(59, -6)"><title>Protein count: 4532</title></rect></g><g class="graph binary gid1001439573228096" visibility="visible" transform="translate(308.25,0)"><path class="binary hover-visible gid1001439573228096" style="fill:none;stroke:none" d="M-5.366563145999495,-1.7888543819998317H-1.7888543819998317V-5.366563145999495H1.7888543819998317V-1.7888543819998317H5.366563145999495V1.7888543819998317H1.7888543819998317V5.366563145999495H-1.7888543819998317V1.7888543819998317H-5.366563145999495Z" transform=" translate(94 ,0)"><title>User strain?: -1</title></path></g><g class="graph binary gid1636700038034480" visibility="visible" transform="translate(308.25,0)"><path class="binary hover-visible gid1636700038034480" style="fill:none;stroke:none" d="M0,4.51351666838205A4.51351666838205,4.51351666838205 0 1,1 0,-4.51351666838205A4.51351666838205,4.51351666838205 0 1,1 0,4.51351666838205Z" transform=" translate(121 ,0)"><title>Type species?: -1</title></path></g><path class="support" stroke="#000000" stroke-dasharray="2,3" stroke-width="0.5px" visibility="visible" d="M0,0 L93,0"/><rect height="12px" width="12px" class="nodelabel color lid745261354558586" style="fill: #1f78b4; stroke: #1f78b4" visibility="visible" transform="translate(260,-6)"><title>Species cluster</title></rect><rect height="12px" width="12px" class="nodelabel color lid969954255573690" style="fill: #ffff99; stroke: #ffff99" visibility="visible" transform="translate(284,-6)"><title>Subspecies cluster</title></rect><text class="name" dx="98" dy="3" text-anchor="start" stroke="#000000" stroke-width="0.3px" fill="#000000" visibility="visible" font-size="9px" font-style="normal">'Ochrobactrum gallinarum Sa2BUA5' </text></g><g class="leaf node cid_T30427" style="cursor: pointer; z-index: 100;" transform="translate(506,115)"><rect class="pointer" fill="red" width="14px" height="14px" style="opacity: 0;" x="-7px" y="-7px"/><path class="domain" stroke="#000000" visibility="visible" d="M441,0L441,0"/><g class="graph heatmap gid1577363677570144" visibility="visible" transform="translate(303.25,0)"><rect class="heatmap hover-visible gid1577363677570144" fill="#c6dbef" stroke="#000000" stroke-width="0.3px" width="12" height="12" transform=" translate(0,-6)"><title>Percent G+C: 53.16</title></rect></g><g class="graph heatmap gid680733689688474" visibility="visible" transform="translate(303.25,0)"><rect class="heatmap hover-visible gid680733689688474" fill="#fcbba1" stroke="#000000" stroke-width="0.3px" width="12" height="12" transform=" translate(17,-6)"><title>delta statistics: 0.125</title></rect></g><g class="graph multibar gid332364513966892" visibility="visible" transform="translate(303.25,0)"><rect class="multibar hover-visible gid332364513966892" fill="#000000" stroke="#000000" stroke-width="0.3" height="12" width="20" transform=" translate(34, -6)"><title>Genome size (in bp): 5645291</title></rect><rect class="multibar hover-visible gid332364513966892" fill="#bf812d" stroke="#000000" stroke-width="0.3" height="12" width="12" transform=" translate(59, -6)"><title>Protein count: 5363</title></rect></g><g class="graph binary gid1001439573228096" visibility="visible" transform="translate(303.25,0)"><path class="binary hover-visible gid1001439573228096" style="fill:none;stroke:none" d="M-5.366563145999495,-1.7888543819998317H-1.7888543819998317V-5.366563145999495H1.7888543819998317V-1.7888543819998317H5.366563145999495V1.7888543819998317H1.7888543819998317V5.366563145999495H-1.7888543819998317V1.7888543819998317H-5.366563145999495Z" transform=" translate(94 ,0)"><title>User strain?: -1</title></path></g><g class="graph binary gid1636700038034480" visibility="visible" transform="translate(303.25,0)"><path class="binary hover-visible gid1636700038034480" style="fill:none;stroke:none" d="M0,4.51351666838205A4.51351666838205,4.51351666838205 0 1,1 0,-4.51351666838205A4.51351666838205,4.51351666838205 0 1,1 0,4.51351666838205Z" transform=" translate(121 ,0)"><title>Type species?: -1</title></path></g><path class="support" stroke="#000000" stroke-dasharray="2,3" stroke-width="0.5px" visibility="visible" d="M0,0 L88,0"/><rect height="12px" width="12px" class="nodelabel color lid745261354558586" style="fill: #1f78b4; stroke: #1f78b4" visibility="visible" transform="translate(255,-6)"><title>Species cluster</title></rect><rect height="12px" width="12px" class="nodelabel color lid969954255573690" style="fill: #e31a1c; stroke: #e31a1c" visibility="visible" transform="translate(279,-6)"><title>Subspecies cluster</title></rect><text class="name" dx="93" dy="3" text-anchor="start" stroke="#000000" stroke-width="0.3px" fill="#000000" visibility="visible" font-size="9px" font-style="normal">'Ochrobactrum quorumnocens A44 T' </text></g><g class="leaf node cid_T23301" style="cursor: pointer; z-index: 100;" transform="translate(565,161)"><rect class="pointer" fill="red" width="14px" height="14px" style="opacity: 0;" x="-7px" y="-7px"/><path class="domain" stroke="#000000" visibility="visible" d="M382,0L382,0"/><g class="graph heatmap gid1577363677570144" visibility="visible" transform="translate(244.25,0)"><rect class="heatmap hover-visible gid1577363677570144" fill="#c6dbef" stroke="#000000" stroke-width="0.3px" width="12" height="12" transform=" translate(0,-6)"><title>Percent G+C: 53.01</title></rect></g><g class="graph heatmap gid680733689688474" visibility="visible" transform="translate(244.25,0)"><rect class="heatmap hover-visible gid680733689688474" fill="#67000d" stroke="#000000" stroke-width="0.3px" width="12" height="12" transform=" translate(17,-6)"><title>delta statistics: 0.207</title></rect></g><g class="graph multibar gid332364513966892" visibility="visible" transform="translate(244.25,0)"><rect class="multibar hover-visible gid332364513966892" fill="#000000" stroke="#000000" stroke-width="0.3" height="12" width="17" transform=" translate(34, -6)"><title>Genome size (in bp): 4904011</title></rect><rect class="multibar hover-visible gid332364513966892" fill="#bf812d" stroke="#000000" stroke-width="0.3" height="12" width="11" transform=" translate(59, -6)"><title>Protein count: 4928</title></rect></g><g class="graph binary gid1001439573228096" visibility="visible" transform="translate(244.25,0)"><path class="binary hover-visible gid1001439573228096" style="fill:none;stroke:none" d="M-5.366563145999495,-1.7888543819998317H-1.7888543819998317V-5.366563145999495H1.7888543819998317V-1.7888543819998317H5.366563145999495V1.7888543819998317H1.7888543819998317V5.366563145999495H-1.7888543819998317V1.7888543819998317H-5.366563145999495Z" transform=" translate(94 ,0)"><title>User strain?: -1</title></path></g><g class="graph binary gid1636700038034480" visibility="visible" transform="translate(244.25,0)"><path class="binary hover-visible gid1636700038034480" style="fill:none;stroke:none" d="M0,4.51351666838205A4.51351666838205,4.51351666838205 0 1,1 0,-4.51351666838205A4.51351666838205,4.51351666838205 0 1,1 0,4.51351666838205Z" transform=" translate(121 ,0)"><title>Type species?: -1</title></path></g><path class="support" stroke="#000000" stroke-dasharray="2,3" stroke-width="0.5px" visibility="visible" d="M0,0 L29,0"/><rect height="12px" width="12px" class="nodelabel color lid745261354558586" style="fill: #b2df8a; stroke: #b2df8a" visibility="visible" transform="translate(196,-6)"><title>Species cluster</title></rect><rect height="12px" width="12px" class="nodelabel color lid969954255573690" style="fill: #1f78b4; stroke: #1f78b4" visibility="visible" transform="translate(220,-6)"><title>Subspecies cluster</title></rect><text class="name" dx="34" dy="3" text-anchor="start" stroke="#000000" stroke-width="0.3px" fill="#000000" visibility="visible" font-size="9px" font-style="normal">Brucella rhizosphaerae PR17 </text></g><g class="inner node cid__4" style="cursor: pointer; z-index: 100;" transform="translate(265,230)"><rect class="pointer" fill="red" width="14px" height="14px" style="opacity: 0;" x="-7px" y="-7px"/><text class="supportValue" dx="-2" text-anchor="end" fill="blue" dy="8" font-size="9px">100 </text><text class="name" dx="7" dy="3" text-anchor="start" stroke="#000000" stroke-width="0.3px" fill="#000000" visibility="visible" font-size="9px" font-style="normal"> </text></g><g class="leaf node cid_T23386" style="cursor: pointer; z-index: 100;" transform="translate(497,207)"><rect class="pointer" fill="red" width="14px" height="14px" style="opacity: 0;" x="-7px" y="-7px"/><path class="domain" stroke="#000000" visibility="visible" d="M450,0L450,0"/><g class="graph heatmap gid1577363677570144" visibility="visible" transform="translate(312.25,0)"><rect class="heatmap hover-visible gid1577363677570144" fill="#6baed6" stroke="#000000" stroke-width="0.3px" width="12" height="12" transform=" translate(0,-6)"><title>Percent G+C: 54.15</title></rect></g><g class="graph heatmap gid680733689688474" visibility="visible" transform="translate(312.25,0)"><rect class="heatmap hover-visible gid680733689688474" fill="#67000d" stroke="#000000" stroke-width="0.3px" width="12" height="12" transform=" translate(17,-6)"><title>delta statistics: 0.199</title></rect></g><g class="graph multibar gid332364513966892" visibility="visible" transform="translate(312.25,0)"><rect class="multibar hover-visible gid332364513966892" fill="#000000" stroke="#000000" stroke-width="0.3" height="12" width="17" transform=" translate(34, -6)"><title>Genome size (in bp): 4838254</title></rect><rect class="multibar hover-visible gid332364513966892" fill="#bf812d" stroke="#000000" stroke-width="0.3" height="12" width="10" transform=" translate(59, -6)"><title>Protein count: 4564</title></rect></g><g class="graph binary gid1001439573228096" visibility="visible" transform="translate(312.25,0)"><path class="binary hover-visible gid1001439573228096" style="fill:none;stroke:none" d="M-5.366563145999495,-1.7888543819998317H-1.7888543819998317V-5.366563145999495H1.7888543819998317V-1.7888543819998317H5.366563145999495V1.7888543819998317H1.7888543819998317V5.366563145999495H-1.7888543819998317V1.7888543819998317H-5.366563145999495Z" transform=" translate(94 ,0)"><title>User strain?: -1</title></path></g><g class="graph binary gid1636700038034480" visibility="visible" transform="translate(312.25,0)"><path class="binary hover-visible gid1636700038034480" style="fill:none;stroke:none" d="M0,4.51351666838205A4.51351666838205,4.51351666838205 0 1,1 0,-4.51351666838205A4.51351666838205,4.51351666838205 0 1,1 0,4.51351666838205Z" transform=" translate(121 ,0)"><title>Type species?: -1</title></path></g><path class="support" stroke="#000000" stroke-dasharray="2,3" stroke-width="0.5px" visibility="visible" d="M0,0 L97,0"/><rect height="12px" width="12px" class="nodelabel color lid745261354558586" style="fill: #e31a1c; stroke: #e31a1c" visibility="visible" transform="translate(264,-6)"><title>Species cluster</title></rect><rect height="12px" width="12px" class="nodelabel color lid969954255573690" style="fill: #fb9a99; stroke: #fb9a99" visibility="visible" transform="translate(288,-6)"><title>Subspecies cluster</title></rect><text class="name" dx="102" dy="3" text-anchor="start" stroke="#000000" stroke-width="0.3px" fill="#000000" visibility="visible" font-size="9px" font-style="normal">Brucella grignonensis OgA9a </text></g><g class="leaf node cid_T11348" style="cursor: pointer; z-index: 100;" transform="translate(529,253)"><rect class="pointer" fill="red" width="14px" height="14px" style="opacity: 0;" x="-7px" y="-7px"/><path class="domain" stroke="#000000" visibility="visible" d="M418,0L418,0"/><g class="graph heatmap gid1577363677570144" visibility="visible" transform="translate(280.25,0)"><rect class="heatmap hover-visible gid1577363677570144" fill="#9ecae1" stroke="#000000" stroke-width="0.3px" width="12" height="12" transform=" translate(0,-6)"><title>Percent G+C: 53.7</title></rect></g><g class="graph heatmap gid680733689688474" visibility="visible" transform="translate(280.25,0)"><rect class="heatmap hover-visible gid680733689688474" fill="#cb181d" stroke="#000000" stroke-width="0.3px" width="12" height="12" transform=" translate(17,-6)"><title>delta statistics: 0.181</title></rect></g><g class="graph multibar gid332364513966892" visibility="visible" transform="translate(280.25,0)"><rect class="multibar hover-visible gid332364513966892" fill="#000000" stroke="#000000" stroke-width="0.3" height="12" width="15" transform=" translate(34, -6)"><title>Genome size (in bp): 4275050</title></rect><rect class="multibar hover-visible gid332364513966892" fill="#bf812d" stroke="#000000" stroke-width="0.3" height="12" width="20" transform=" translate(59, -6)"><title>Protein count: 8618</title></rect></g><g class="graph binary gid1001439573228096" visibility="visible" transform="translate(280.25,0)"><path class="binary hover-visible gid1001439573228096" style="fill:none;stroke:none" d="M-5.366563145999495,-1.7888543819998317H-1.7888543819998317V-5.366563145999495H1.7888543819998317V-1.7888543819998317H5.366563145999495V1.7888543819998317H1.7888543819998317V5.366563145999495H-1.7888543819998317V1.7888543819998317H-5.366563145999495Z" transform=" translate(94 ,0)"><title>User strain?: -1</title></path></g><g class="graph binary gid1636700038034480" visibility="visible" transform="translate(280.25,0)"><path class="binary hover-visible gid1636700038034480" style="fill:none;stroke:none" d="M0,4.51351666838205A4.51351666838205,4.51351666838205 0 1,1 0,-4.51351666838205A4.51351666838205,4.51351666838205 0 1,1 0,4.51351666838205Z" transform=" translate(121 ,0)"><title>Type species?: -1</title></path></g><path class="support" stroke="#000000" stroke-dasharray="2,3" stroke-width="0.5px" visibility="visible" d="M0,0 L65,0"/><rect height="12px" width="12px" class="nodelabel color lid745261354558586" style="fill: #a6cee3; stroke: #a6cee3" visibility="visible" transform="translate(232,-6)"><title>Species cluster</title></rect><rect height="12px" width="12px" class="nodelabel color lid969954255573690" style="fill: #a6cee3; stroke: #a6cee3" visibility="visible" transform="translate(256,-6)"><title>Subspecies cluster</title></rect><text class="name" dx="70" dy="3" text-anchor="start" stroke="#000000" stroke-width="0.3px" fill="#000000" visibility="visible" font-size="9px" font-style="normal">Brucella pituitosa CCUG 50899 </text></g><g class="inner node cid__6" style="cursor: pointer; z-index: 100;" transform="translate(65,323)"><rect class="pointer" fill="red" width="14px" height="14px" style="opacity: 0;" x="-7px" y="-7px"/><text class="supportValue" dx="-2" text-anchor="end" fill="blue" dy="8" font-size="9px">83 </text><text class="name" dx="7" dy="3" text-anchor="start" stroke="#000000" stroke-width="0.3px" fill="#000000" visibility="visible" font-size="9px" font-style="normal"> </text></g><g class="leaf node cid_T23308" style="cursor: pointer; z-index: 100;" transform="translate(593,300)"><rect class="pointer" fill="red" width="14px" height="14px" style="opacity: 0;" x="-7px" y="-7px"/><path class="domain" stroke="#000000" visibility="visible" d="M354,0L354,0"/><g class="graph heatmap gid1577363677570144" visibility="visible" transform="translate(216.25,0)"><rect class="heatmap hover-visible gid1577363677570144" fill="#f7fbff" stroke="#000000" stroke-width="0.3px" width="12" height="12" transform=" translate(0,-6)"><title>Percent G+C: 51.65</title></rect></g><g class="graph heatmap gid680733689688474" visibility="visible" transform="translate(216.25,0)"><rect class="heatmap hover-visible gid680733689688474" fill="#a50f15" stroke="#000000" stroke-width="0.3px" width="12" height="12" transform=" translate(17,-6)"><title>delta statistics: 0.185</title></rect></g><g class="graph multibar gid332364513966892" visibility="visible" transform="translate(216.25,0)"><rect class="multibar hover-visible gid332364513966892" fill="#000000" stroke="#000000" stroke-width="0.3" height="12" width="15" transform=" translate(34, -6)"><title>Genome size (in bp): 4364781</title></rect><rect class="multibar hover-visible gid332364513966892" fill="#bf812d" stroke="#000000" stroke-width="0.3" height="12" width="9" transform=" translate(59, -6)"><title>Protein count: 3957</title></rect></g><g class="graph binary gid1001439573228096" visibility="visible" transform="translate(216.25,0)"><path class="binary hover-visible gid1001439573228096" style="fill:none;stroke:none" d="M-5.366563145999495,-1.7888543819998317H-1.7888543819998317V-5.366563145999495H1.7888543819998317V-1.7888543819998317H5.366563145999495V1.7888543819998317H1.7888543819998317V5.366563145999495H-1.7888543819998317V1.7888543819998317H-5.366563145999495Z" transform=" translate(94 ,0)"><title>User strain?: -1</title></path></g><g class="graph binary gid1636700038034480" visibility="visible" transform="translate(216.25,0)"><path class="binary hover-visible gid1636700038034480" style="fill:none;stroke:none" d="M0,4.51351666838205A4.51351666838205,4.51351666838205 0 1,1 0,-4.51351666838205A4.51351666838205,4.51351666838205 0 1,1 0,4.51351666838205Z" transform=" translate(121 ,0)"><title>Type species?: -1</title></path></g><path class="support" stroke="#000000" stroke-dasharray="2,3" stroke-width="0.5px" visibility="visible" d="M0,0 L1,0"/><rect height="12px" width="12px" class="nodelabel color lid745261354558586" style="fill: #fb9a99; stroke: #fb9a99" visibility="visible" transform="translate(168,-6)"><title>Species cluster</title></rect><rect height="12px" width="12px" class="nodelabel color lid969954255573690" style="fill: #33a02c; stroke: #33a02c" visibility="visible" transform="translate(192,-6)"><title>Subspecies cluster</title></rect><text class="name" dx="6" dy="3" text-anchor="start" stroke="#000000" stroke-width="0.3px" fill="#000000" visibility="visible" font-size="9px" font-style="normal">Brucella thiophenivorans DSM 7216 </text></g><g class="leaf node cid_T23302" style="cursor: pointer; z-index: 100;" transform="translate(509,346)"><rect class="pointer" fill="red" width="14px" height="14px" style="opacity: 0;" x="-7px" y="-7px"/><path class="domain" stroke="#000000" visibility="visible" d="M438,0L438,0"/><g class="graph heatmap gid1577363677570144" visibility="visible" transform="translate(300.25,0)"><rect class="heatmap hover-visible gid1577363677570144" fill="#6baed6" stroke="#000000" stroke-width="0.3px" width="12" height="12" transform=" translate(0,-6)"><title>Percent G+C: 53.99</title></rect></g><g class="graph heatmap gid680733689688474" visibility="visible" transform="translate(300.25,0)"><rect class="heatmap hover-visible gid680733689688474" fill="#cb181d" stroke="#000000" stroke-width="0.3px" width="12" height="12" transform=" translate(17,-6)"><title>delta statistics: 0.173</title></rect></g><g class="graph multibar gid332364513966892" visibility="visible" transform="translate(300.25,0)"><rect class="multibar hover-visible gid332364513966892" fill="#000000" stroke="#000000" stroke-width="0.3" height="12" width="19" transform=" translate(34, -6)"><title>Genome size (in bp): 5531557</title></rect><rect class="multibar hover-visible gid332364513966892" fill="#bf812d" stroke="#000000" stroke-width="0.3" height="12" width="13" transform=" translate(59, -6)"><title>Protein count: 5652</title></rect></g><g class="graph binary gid1001439573228096" visibility="visible" transform="translate(300.25,0)"><path class="binary hover-visible gid1001439573228096" style="fill:none;stroke:none" d="M-5.366563145999495,-1.7888543819998317H-1.7888543819998317V-5.366563145999495H1.7888543819998317V-1.7888543819998317H5.366563145999495V1.7888543819998317H1.7888543819998317V5.366563145999495H-1.7888543819998317V1.7888543819998317H-5.366563145999495Z" transform=" translate(94 ,0)"><title>User strain?: -1</title></path></g><g class="graph binary gid1636700038034480" visibility="visible" transform="translate(300.25,0)"><path class="binary hover-visible gid1636700038034480" style="fill:none;stroke:none" d="M0,4.51351666838205A4.51351666838205,4.51351666838205 0 1,1 0,-4.51351666838205A4.51351666838205,4.51351666838205 0 1,1 0,4.51351666838205Z" transform=" translate(121 ,0)"><title>Type species?: -1</title></path></g><path class="support" stroke="#000000" stroke-dasharray="2,3" stroke-width="0.5px" visibility="visible" d="M0,0 L85,0"/><rect height="12px" width="12px" class="nodelabel color lid745261354558586" style="fill: #33a02c; stroke: #33a02c" visibility="visible" transform="translate(252,-6)"><title>Species cluster</title></rect><rect height="12px" width="12px" class="nodelabel color lid969954255573690" style="fill: #b2df8a; stroke: #b2df8a" visibility="visible" transform="translate(276,-6)"><title>Subspecies cluster</title></rect><text class="name" dx="90" dy="3" text-anchor="start" stroke="#000000" stroke-width="0.3px" fill="#000000" visibility="visible" font-size="9px" font-style="normal">Brucella pseudogrignonensis CCUG 30717 </text></g><g class="inner node cid__11" style="cursor: pointer; z-index: 100;" transform="translate(97,458)"><rect class="pointer" fill="red" width="14px" height="14px" style="opacity: 0;" x="-7px" y="-7px"/><text class="supportValue" dx="-2" text-anchor="end" fill="blue" dy="8" font-size="9px">100 </text><text class="name" dx="7" dy="3" text-anchor="start" stroke="#000000" stroke-width="0.3px" fill="#000000" visibility="visible" font-size="9px" font-style="normal"> </text></g><g class="leaf node cid_T9372" style="cursor: pointer; z-index: 100;" transform="translate(594,392)"><rect class="pointer" fill="red" width="14px" height="14px" style="opacity: 0;" x="-7px" y="-7px"/><path class="domain" stroke="#000000" visibility="visible" d="M353,0L353,0"/><g class="graph heatmap gid1577363677570144" visibility="visible" transform="translate(215.25,0)"><rect class="heatmap hover-visible gid1577363677570144" fill="#08306b" stroke="#000000" stroke-width="0.3px" width="12" height="12" transform=" translate(0,-6)"><title>Percent G+C: 56.67</title></rect></g><g class="graph heatmap gid680733689688474" visibility="visible" transform="translate(215.25,0)"><rect class="heatmap hover-visible gid680733689688474" fill="#fc9272" stroke="#000000" stroke-width="0.3px" width="12" height="12" transform=" translate(17,-6)"><title>delta statistics: 0.136</title></rect></g><g class="graph multibar gid332364513966892" visibility="visible" transform="translate(215.25,0)"><rect class="multibar hover-visible gid332364513966892" fill="#000000" stroke="#000000" stroke-width="0.3" height="12" width="19" transform=" translate(34, -6)"><title>Genome size (in bp): 5494684</title></rect><rect class="multibar hover-visible gid332364513966892" fill="#bf812d" stroke="#000000" stroke-width="0.3" height="12" width="11" transform=" translate(59, -6)"><title>Protein count: 5029</title></rect></g><g class="graph binary gid1001439573228096" visibility="visible" transform="translate(215.25,0)"><path class="binary hover-visible gid1001439573228096" style="fill:none;stroke:none" d="M-5.366563145999495,-1.7888543819998317H-1.7888543819998317V-5.366563145999495H1.7888543819998317V-1.7888543819998317H5.366563145999495V1.7888543819998317H1.7888543819998317V5.366563145999495H-1.7888543819998317V1.7888543819998317H-5.366563145999495Z" transform=" translate(94 ,0)"><title>User strain?: -1</title></path></g><g class="graph binary gid1636700038034480" visibility="visible" transform="translate(215.25,0)"><path class="binary hover-visible gid1636700038034480" style="fill:none;stroke:none" d="M0,4.51351666838205A4.51351666838205,4.51351666838205 0 1,1 0,-4.51351666838205A4.51351666838205,4.51351666838205 0 1,1 0,4.51351666838205Z" transform=" translate(121 ,0)"><title>Type species?: -1</title></path></g><path class="support" stroke="#000000" stroke-dasharray="2,3" stroke-width="0.5px" visibility="visible" d="M0,0 L0,0"/><rect height="12px" width="12px" class="nodelabel color lid745261354558586" style="fill: #6a3d9a; stroke: #6a3d9a" visibility="visible" transform="translate(167,-6)"><title>Species cluster</title></rect><rect height="12px" width="12px" class="nodelabel color lid969954255573690" style="fill: #6a3d9a; stroke: #6a3d9a" visibility="visible" transform="translate(191,-6)"><title>Subspecies cluster</title></rect><text class="name" dx="5" dy="3" text-anchor="start" stroke="#000000" stroke-width="0.3px" fill="#000000" visibility="visible" font-size="9px" font-style="normal">Brucella haematophila CCUG 38531 </text></g><g class="inner node cid__10" style="cursor: pointer; z-index: 100;" transform="translate(273,525)"><rect class="pointer" fill="red" width="14px" height="14px" style="opacity: 0;" x="-7px" y="-7px"/><text class="supportValue" dx="-2" text-anchor="end" fill="blue" dy="8" font-size="9px">100 </text><text class="name" dx="7" dy="3" text-anchor="start" stroke="#000000" stroke-width="0.3px" fill="#000000" visibility="visible" font-size="9px" font-style="normal"> </text></g><g class="inner node cid__9" style="cursor: pointer; z-index: 100;" transform="translate(340,473)"><rect class="pointer" fill="red" width="14px" height="14px" style="opacity: 0;" x="-7px" y="-7px"/><text class="supportValue" dx="-2" text-anchor="end" fill="blue" dy="8" font-size="9px">99 </text><text class="name" dx="7" dy="3" text-anchor="start" stroke="#000000" stroke-width="0.3px" fill="#000000" visibility="visible" font-size="9px" font-style="normal"> </text></g><g class="leaf node cid_T8298" style="cursor: pointer; z-index: 100;" transform="translate(581,438)"><rect class="pointer" fill="red" width="14px" height="14px" style="opacity: 0;" x="-7px" y="-7px"/><path class="domain" stroke="#000000" visibility="visible" d="M366,0L366,0"/><g class="graph heatmap gid1577363677570144" visibility="visible" transform="translate(228.25,0)"><rect class="heatmap hover-visible gid1577363677570144" fill="#08519c" stroke="#000000" stroke-width="0.3px" width="12" height="12" transform=" translate(0,-6)"><title>Percent G+C: 55.91</title></rect></g><g class="graph heatmap gid680733689688474" visibility="visible" transform="translate(228.25,0)"><rect class="heatmap hover-visible gid680733689688474" fill="#fff5f0" stroke="#000000" stroke-width="0.3px" width="12" height="12" transform=" translate(17,-6)"><title>delta statistics: 0.108</title></rect></g><g class="graph multibar gid332364513966892" visibility="visible" transform="translate(228.25,0)"><rect class="multibar hover-visible gid332364513966892" fill="#000000" stroke="#000000" stroke-width="0.3" height="12" width="18" transform=" translate(34, -6)"><title>Genome size (in bp): 5183744</title></rect><rect class="multibar hover-visible gid332364513966892" fill="#bf812d" stroke="#000000" stroke-width="0.3" height="12" width="11" transform=" translate(59, -6)"><title>Protein count: 4921</title></rect></g><g class="graph binary gid1001439573228096" visibility="visible" transform="translate(228.25,0)"><path class="binary hover-visible gid1001439573228096" style="fill:none;stroke:none" d="M-5.366563145999495,-1.7888543819998317H-1.7888543819998317V-5.366563145999495H1.7888543819998317V-1.7888543819998317H5.366563145999495V1.7888543819998317H1.7888543819998317V5.366563145999495H-1.7888543819998317V1.7888543819998317H-5.366563145999495Z" transform=" translate(94 ,0)"><title>User strain?: -1</title></path></g><g class="graph binary gid1636700038034480" visibility="visible" transform="translate(228.25,0)"><path class="binary hover-visible gid1636700038034480" style="fill:none;stroke:none" d="M0,4.51351666838205A4.51351666838205,4.51351666838205 0 1,1 0,-4.51351666838205A4.51351666838205,4.51351666838205 0 1,1 0,4.51351666838205Z" transform=" translate(121 ,0)"><title>Type species?: -1</title></path></g><path class="support" stroke="#000000" stroke-dasharray="2,3" stroke-width="0.5px" visibility="visible" d="M0,0 L13,0"/><rect height="12px" width="12px" class="nodelabel color lid745261354558586" style="fill: #cab2d6; stroke: #cab2d6" visibility="visible" transform="translate(180,-6)"><title>Species cluster</title></rect><rect height="12px" width="12px" class="nodelabel color lid969954255573690" style="fill: #cab2d6; stroke: #cab2d6" visibility="visible" transform="translate(204,-6)"><title>Subspecies cluster</title></rect><text class="name" dx="18" dy="3" text-anchor="start" stroke="#000000" stroke-width="0.3px" fill="#000000" visibility="visible" font-size="9px" font-style="normal">Brucella tritici LMG 18957 </text></g><g class="inner node cid__8" style="cursor: pointer; z-index: 100;" transform="translate(537,507)"><rect class="pointer" fill="red" width="14px" height="14px" style="opacity: 0;" x="-7px" y="-7px"/><text class="supportValue" dx="-2" text-anchor="end" fill="blue" dy="8" font-size="9px">98 </text><text class="name" dx="7" dy="3" text-anchor="start" stroke="#000000" stroke-width="0.3px" fill="#000000" visibility="visible" font-size="9px" font-style="normal"> </text></g><g class="leaf node cid_T348" style="cursor: pointer; z-index: 100;" transform="translate(583,484)"><rect class="pointer" fill="red" width="14px" height="14px" style="opacity: 0;" x="-7px" y="-7px"/><path class="domain" stroke="#000000" visibility="visible" d="M364,0L364,0"/><g class="graph heatmap gid1577363677570144" visibility="visible" transform="translate(226.25,0)"><rect class="heatmap hover-visible gid1577363677570144" fill="#08306b" stroke="#000000" stroke-width="0.3px" width="12" height="12" transform=" translate(0,-6)"><title>Percent G+C: 56.13</title></rect></g><g class="graph heatmap gid680733689688474" visibility="visible" transform="translate(226.25,0)"><rect class="heatmap hover-visible gid680733689688474" fill="#fff5f0" stroke="#000000" stroke-width="0.3px" width="12" height="12" transform=" translate(17,-6)"><title>delta statistics: 0.111</title></rect></g><g class="graph multibar gid332364513966892" visibility="visible" transform="translate(226.25,0)"><rect class="multibar hover-visible gid332364513966892" fill="#000000" stroke="#000000" stroke-width="0.3" height="12" width="18" transform=" translate(34, -6)"><title>Genome size (in bp): 5205777</title></rect><rect class="multibar hover-visible gid332364513966892" fill="#bf812d" stroke="#000000" stroke-width="0.3" height="12" width="11" transform=" translate(59, -6)"><title>Protein count: 4799</title></rect></g><g class="graph binary gid1001439573228096" visibility="visible" transform="translate(226.25,0)"><path class="binary hover-visible gid1001439573228096" style="fill:none;stroke:none" d="M-5.366563145999495,-1.7888543819998317H-1.7888543819998317V-5.366563145999495H1.7888543819998317V-1.7888543819998317H5.366563145999495V1.7888543819998317H1.7888543819998317V5.366563145999495H-1.7888543819998317V1.7888543819998317H-5.366563145999495Z" transform=" translate(94 ,0)"><title>User strain?: -1</title></path></g><g class="graph binary gid1636700038034480" visibility="visible" transform="translate(226.25,0)"><path class="binary hover-visible gid1636700038034480" style="fill:none;stroke:none" d="M0,4.51351666838205A4.51351666838205,4.51351666838205 0 1,1 0,-4.51351666838205A4.51351666838205,4.51351666838205 0 1,1 0,4.51351666838205Z" transform=" translate(121 ,0)"><title>Type species?: -1</title></path></g><path class="support" stroke="#000000" stroke-dasharray="2,3" stroke-width="0.5px" visibility="visible" d="M0,0 L11,0"/><rect height="12px" width="12px" class="nodelabel color lid745261354558586" style="fill: #fdbf6f; stroke: #fdbf6f" visibility="visible" transform="translate(178,-6)"><title>Species cluster</title></rect><rect height="12px" width="12px" class="nodelabel color lid969954255573690" style="fill: #fdbf6f; stroke: #fdbf6f" visibility="visible" transform="translate(202,-6)"><title>Subspecies cluster</title></rect><text class="name" dx="16" dy="3" text-anchor="start" stroke="#000000" stroke-width="0.3px" fill="#000000" visibility="visible" font-size="9px" font-style="normal">Brucella anthropi ATCC 49188 </text></g><g class="leaf node cid_T23299" style="cursor: pointer; z-index: 100;" transform="translate(590,530)"><rect class="pointer" fill="red" width="14px" height="14px" style="opacity: 0;" x="-7px" y="-7px"/><path class="domain" stroke="#000000" visibility="visible" d="M357,0L357,0"/><g class="graph heatmap gid1577363677570144" visibility="visible" transform="translate(219.25,0)"><rect class="heatmap hover-visible gid1577363677570144" fill="#08306b" stroke="#000000" stroke-width="0.3px" width="12" height="12" transform=" translate(0,-6)"><title>Percent G+C: 56.35</title></rect></g><g class="graph heatmap gid680733689688474" visibility="visible" transform="translate(219.25,0)"><rect class="heatmap hover-visible gid680733689688474" fill="#fff5f0" stroke="#000000" stroke-width="0.3px" width="12" height="12" transform=" translate(17,-6)"><title>delta statistics: 0.107</title></rect></g><g class="graph multibar gid332364513966892" visibility="visible" transform="translate(219.25,0)"><rect class="multibar hover-visible gid332364513966892" fill="#000000" stroke="#000000" stroke-width="0.3" height="12" width="19" transform=" translate(34, -6)"><title>Genome size (in bp): 5582811</title></rect><rect class="multibar hover-visible gid332364513966892" fill="#bf812d" stroke="#000000" stroke-width="0.3" height="12" width="13" transform=" translate(59, -6)"><title>Protein count: 5720</title></rect></g><g class="graph binary gid1001439573228096" visibility="visible" transform="translate(219.25,0)"><path class="binary hover-visible gid1001439573228096" style="fill:none;stroke:none" d="M-5.366563145999495,-1.7888543819998317H-1.7888543819998317V-5.366563145999495H1.7888543819998317V-1.7888543819998317H5.366563145999495V1.7888543819998317H1.7888543819998317V5.366563145999495H-1.7888543819998317V1.7888543819998317H-5.366563145999495Z" transform=" translate(94 ,0)"><title>User strain?: -1</title></path></g><g class="graph binary gid1636700038034480" visibility="visible" transform="translate(219.25,0)"><path class="binary hover-visible gid1636700038034480" style="fill:none;stroke:none" d="M0,4.51351666838205A4.51351666838205,4.51351666838205 0 1,1 0,-4.51351666838205A4.51351666838205,4.51351666838205 0 1,1 0,4.51351666838205Z" transform=" translate(121 ,0)"><title>Type species?: -1</title></path></g><path class="support" stroke="#000000" stroke-dasharray="2,3" stroke-width="0.5px" visibility="visible" d="M0,0 L4,0"/><rect height="12px" width="12px" class="nodelabel color lid745261354558586" style="fill: #fdbf6f; stroke: #fdbf6f" visibility="visible" transform="translate(171,-6)"><title>Species cluster</title></rect><rect height="12px" width="12px" class="nodelabel color lid969954255573690" style="fill: #fdbf6f; stroke: #fdbf6f" visibility="visible" transform="translate(195,-6)"><title>Subspecies cluster</title></rect><text class="name" dx="9" dy="3" text-anchor="start" stroke="#000000" stroke-width="0.3px" fill="#000000" visibility="visible" font-size="9px" font-style="normal">Brucella lupini LUP21 </text></g><g class="leaf node cid_T7667" style="cursor: pointer; z-index: 100;" transform="translate(579,576)"><rect class="pointer" fill="red" width="14px" height="14px" style="opacity: 0;" x="-7px" y="-7px"/><path class="domain" stroke="#000000" visibility="visible" d="M368,0L368,0"/><g class="graph heatmap gid1577363677570144" visibility="visible" transform="translate(230.25,0)"><rect class="heatmap hover-visible gid1577363677570144" fill="#08519c" stroke="#000000" stroke-width="0.3px" width="12" height="12" transform=" translate(0,-6)"><title>Percent G+C: 55.95</title></rect></g><g class="graph heatmap gid680733689688474" visibility="visible" transform="translate(230.25,0)"><rect class="heatmap hover-visible gid680733689688474" fill="#fff5f0" stroke="#000000" stroke-width="0.3px" width="12" height="12" transform=" translate(17,-6)"><title>delta statistics: 0.099</title></rect></g><g class="graph multibar gid332364513966892" visibility="visible" transform="translate(230.25,0)"><rect class="multibar hover-visible gid332364513966892" fill="#000000" stroke="#000000" stroke-width="0.3" height="12" width="17" transform=" translate(34, -6)"><title>Genome size (in bp): 5067073</title></rect><rect class="multibar hover-visible gid332364513966892" fill="#bf812d" stroke="#000000" stroke-width="0.3" height="12" width="11" transform=" translate(59, -6)"><title>Protein count: 4941</title></rect></g><g class="graph binary gid1001439573228096" visibility="visible" transform="translate(230.25,0)"><path class="binary hover-visible gid1001439573228096" style="fill:none;stroke:none" d="M-5.366563145999495,-1.7888543819998317H-1.7888543819998317V-5.366563145999495H1.7888543819998317V-1.7888543819998317H5.366563145999495V1.7888543819998317H1.7888543819998317V5.366563145999495H-1.7888543819998317V1.7888543819998317H-5.366563145999495Z" transform=" translate(94 ,0)"><title>User strain?: -1</title></path></g><g class="graph binary gid1636700038034480" visibility="visible" transform="translate(230.25,0)"><path class="binary hover-visible gid1636700038034480" style="fill:none;stroke:none" d="M0,4.51351666838205A4.51351666838205,4.51351666838205 0 1,1 0,-4.51351666838205A4.51351666838205,4.51351666838205 0 1,1 0,4.51351666838205Z" transform=" translate(121 ,0)"><title>Type species?: -1</title></path></g><path class="support" stroke="#000000" stroke-dasharray="2,3" stroke-width="0.5px" visibility="visible" d="M0,0 L15,0"/><rect height="12px" width="12px" class="nodelabel color lid745261354558586" style="fill: #ff7f00; stroke: #ff7f00" visibility="visible" transform="translate(182,-6)"><title>Species cluster</title></rect><rect height="12px" width="12px" class="nodelabel color lid969954255573690" style="fill: #ff7f00; stroke: #ff7f00" visibility="visible" transform="translate(206,-6)"><title>Subspecies cluster</title></rect><text class="name" dx="20" dy="3" text-anchor="start" stroke="#000000" stroke-width="0.3px" fill="#000000" visibility="visible" font-size="9px" font-style="normal">Brucella pecoris DSM 23868 </text></g><text class="labellegend lid745261354558586" fill="#000000" transform="translate(773,-10) rotate(-90)" font-size="12px">Species cluster</text><text class="labellegend lid969954255573690" fill="#000000" transform="translate(797,-10) rotate(-90)" font-size="12px">Subspecies cluster</text><text class="legend" transform="translate(821,-10) rotate(-90)" fill="#000000" font-size="12px">Percent G+C</text><text class="legend" transform="translate(838,-10) rotate(-90)" fill="#000000" font-size="12px">delta statistics</text><text class="legend" transform="translate(853.25,-10) rotate(-90)" fill="#000000" font-size="12px">Genome size (in bp)</text><text class="legend" transform="translate(878.25,-10) rotate(-90)" fill="#000000" font-size="12px">Protein count</text><text class="legend" transform="translate(905.25, -10) rotate(-90)" fill="#000000" font-size="12px">User strain?</text><text class="legend" transform="translate(932.25, -10) rotate(-90)" fill="#000000" font-size="12px">Type species?</text></g><text dy="20px" class="title" stroke="#000000" stroke-width="1px" font-size="15px"/><text class="title" dy="40px" stroke="#000000" stroke-width="0.5px" font-size="10px"/></svg>